<svg width="17" height="26" viewBox="0 0 17 26" fill="none" xmlns="http://www.w3.org/2000/svg">
<g id="microphone">
<path id="combo shape" fill-rule="evenodd" clip-rule="evenodd" d="M8.5 0.5C5.73858 0.5 3.5 2.73858 3.5 5.5V13C3.5 15.7614 5.73858 18 8.5 18C11.2614 18 13.5 15.7614 13.5 13V5.5C13.5 2.73858 11.2614 0.5 8.5 0.5ZM1 10.8125C1.51777 10.8125 1.9375 11.2322 1.9375 11.75V13C1.9375 16.6244 4.87563 19.5625 8.5 19.5625C12.1244 19.5625 15.0625 16.6244 15.0625 13V11.75C15.0625 11.2322 15.4822 10.8125 16 10.8125C16.5178 10.8125 16.9375 11.2322 16.9375 11.75V13C16.9375 17.343 13.6562 20.9197 9.4375 21.386V23.625H12.25C12.7678 23.625 13.1875 24.0447 13.1875 24.5625C13.1875 25.0803 12.7678 25.5 12.25 25.5H4.75C4.23223 25.5 3.8125 25.0803 3.8125 24.5625C3.8125 24.0447 4.23223 23.625 4.75 23.625H7.5625V21.386C3.3438 20.9197 0.0625 17.343 0.0625 13V11.75C0.0625 11.2322 0.482233 10.8125 1 10.8125Z" fill="#5436FF"/>
</g>
</svg>
