<svg width="21" height="21" viewBox="0 0 21 21" fill="none" xmlns="http://www.w3.org/2000/svg">
<path fill-rule="evenodd" clip-rule="evenodd" d="M8.52334 10.7344L3.52983 9.06985C1.17661 8.28544 0 7.89324 0 7.17248C0 6.45172 1.17661 6.05952 3.52982 5.27512L17.5355 0.606561C19.1913 0.05463 20.0192 -0.221335 20.4562 0.215681C20.8932 0.652697 20.6172 1.48059 20.0653 3.13638L15.3968 17.142C14.6124 19.4953 14.2201 20.6719 13.4994 20.6719C12.7786 20.6719 12.3864 19.4953 11.602 17.142L9.93754 12.1486L15.5117 6.57445C15.9022 6.18392 15.9022 5.55076 15.5117 5.16024C15.1211 4.76971 14.488 4.76971 14.0975 5.16024L8.52334 10.7344Z" fill="white"/>
</svg>
