<svg width="34" height="40" viewBox="0 0 34 40" fill="none" xmlns="http://www.w3.org/2000/svg">
<g clip-path="url(#clip0_583_165)">
<path d="M5.96227 26.0637H11.1713C11.5877 26.0637 11.9219 25.7269 11.9219 25.3131V21.7538C11.9219 21.3984 11.6726 21.0854 11.3225 21.0191C8.94341 20.5736 7.13987 18.4889 7.13987 15.9772C7.13987 13.4655 8.94075 11.3835 11.3225 10.9353C11.6726 10.8689 11.9219 10.556 11.9219 10.2006V5.96227C11.9245 2.66817 9.25372 0 5.96227 0C2.66817 0 0 2.66817 0 5.96227V20.1015C0 23.3929 2.66817 26.0637 5.96227 26.0637Z" fill="white"/>
</g>
<path d="M19.531 13.936H14.322C13.9056 13.936 13.5714 14.2729 13.5714 14.6866V18.246C13.5714 18.6014 13.8207 18.9143 14.1708 18.9806C16.5499 19.4262 18.3534 21.5109 18.3534 24.0226C18.3534 26.5343 16.5525 28.6163 14.1708 29.0645C13.8207 29.1308 13.5714 29.4438 13.5714 29.7992V34.0375C13.5714 37.3289 16.2396 39.9998 19.5337 39.9998C22.8251 39.9998 25.496 37.3316 25.496 34.0375V19.8983C25.4933 16.6042 22.8251 13.936 19.531 13.936Z" fill="white"/>
<circle cx="28.9286" cy="11.0716" r="4.64286" fill="white"/>
<defs>
<clipPath id="clip0_583_165">
<rect width="25.9497" height="26.0637" fill="white"/>
</clipPath>
</defs>
</svg>
