<svg width="200" height="56" viewBox="0 0 200 56" fill="none" xmlns="http://www.w3.org/2000/svg">
<g clip-path="url(#clip0_302_146)">
<path d="M8.34718 36.4892H15.6398C16.2228 36.4892 16.6906 36.0176 16.6906 35.4384V30.4553C16.6906 29.9578 16.3416 29.5196 15.8515 29.4268C12.5208 28.803 9.99582 25.8844 9.99582 22.3681C9.99582 18.8517 12.5171 15.9369 15.8515 15.3094C16.3416 15.2165 16.6906 14.7784 16.6906 14.2808V8.34718C16.6944 3.73544 12.9552 0 8.34718 0C3.73544 0 0 3.73544 0 8.34718V28.142C0 32.7501 3.73544 36.4892 8.34718 36.4892Z" fill="white"/>
</g>
<path d="M27.3435 19.5107H20.0508C19.4679 19.5107 19 19.9823 19 20.5616V25.5446C19 26.0422 19.349 26.4803 19.8392 26.5732C23.1699 27.197 25.6948 30.1155 25.6948 33.6319C25.6948 37.1482 23.1736 40.0631 19.8392 40.6906C19.349 40.7834 19 41.2216 19 41.7191V47.6528C19 52.2608 22.7354 56 27.3472 56C31.9552 56 35.6944 52.2645 35.6944 47.6528V27.8579C35.6906 23.2462 31.9552 19.5107 27.3435 19.5107Z" fill="white"/>
<circle cx="40.5" cy="15.5" r="6.5" fill="white"/>
<path d="M65.1484 17.7188H76.7109C78.8203 17.7188 80.6432 18.0964 82.1797 18.8516C83.7292 19.6068 84.9141 20.694 85.7344 22.1133C86.5677 23.5195 86.9844 25.1797 86.9844 27.0938C86.9844 29.0208 86.5612 30.6745 85.7148 32.0547C84.8815 33.4349 83.6771 34.4831 82.1016 35.1992L88 46H80.6953L75.5 36.2734H71.7891V46H65.1484V17.7188ZM75.3047 30.9609C78.5078 30.9609 80.1094 29.6719 80.1094 27.0938C80.1094 25.7786 79.6992 24.7891 78.8789 24.125C78.0716 23.4479 76.8802 23.1094 75.3047 23.1094H71.7891V30.9609H75.3047ZM97.2969 46H90.6953V17.7188H97.0625V28.6562H97.2969C97.7917 27.3542 98.5859 26.3385 99.6797 25.6094C100.773 24.8802 102.102 24.5156 103.664 24.5156C105.135 24.5156 106.424 24.8477 107.531 25.5117C108.651 26.1628 109.517 27.0872 110.129 28.2852C110.741 29.4831 111.047 30.8828 111.047 32.4844V46H104.445V33.7344C104.471 32.5365 104.172 31.599 103.547 30.9219C102.935 30.2448 102.076 29.9062 100.969 29.9062C99.862 29.9062 98.9701 30.2643 98.293 30.9805C97.6289 31.6836 97.2969 32.6406 97.2969 33.8516V46ZM118.234 53.9688C116.906 53.9688 115.812 53.9297 114.953 53.8516V48.8516C115.526 48.9036 116.385 48.9297 117.531 48.9297C117.961 48.9297 118.312 48.8971 118.586 48.832C118.872 48.7669 119.139 48.6237 119.387 48.4023C119.634 48.181 119.849 47.849 120.031 47.4062L120.266 46.7422L112.727 24.7891H119.602L123.625 40.0234H123.859L127.883 24.7891H134.836L126.789 48.0703C126.164 49.9453 125.168 51.3971 123.801 52.4258C122.447 53.4544 120.591 53.9688 118.234 53.9688ZM149.289 29.6328H145.266V46H138.664V29.6328H135.773V24.7891H138.664V23.6172C138.664 21.2604 139.302 19.4701 140.578 18.2461C141.867 17.0091 143.638 16.3906 145.891 16.3906C147.284 16.3906 148.547 16.5078 149.68 16.7422V21.625C148.781 21.5469 148.182 21.5078 147.883 21.5078C147.023 21.5078 146.372 21.6901 145.93 22.0547C145.487 22.4193 145.266 22.9922 145.266 23.7734V24.7891H149.289V29.6328ZM160.148 46L169.758 17.7188H178.586L188.156 46H181.008L179.094 39.9453H169.25L167.336 46H160.148ZM177.492 34.8672L174.289 24.7109H174.055L170.852 34.8672H177.492ZM197.805 46H191.164V17.7188H197.805V46Z" fill="white"/>
<defs>
<clipPath id="clip0_302_146">
<rect width="36.3295" height="36.4892" fill="white"/>
</clipPath>
</defs>
</svg>
