<svg width="141" height="40" viewBox="0 0 141 40" fill="none" xmlns="http://www.w3.org/2000/svg">
<g clip-path="url(#clip0_583_164)">
<path d="M5.96227 26.0637H11.1713C11.5877 26.0637 11.9219 25.7269 11.9219 25.3131V21.7538C11.9219 21.3984 11.6726 21.0854 11.3225 21.0191C8.94341 20.5736 7.13987 18.4889 7.13987 15.9772C7.13987 13.4655 8.94075 11.3835 11.3225 10.9353C11.6726 10.8689 11.9219 10.556 11.9219 10.2006V5.96227C11.9245 2.66817 9.25372 0 5.96227 0C2.66817 0 0 2.66817 0 5.96227V20.1015C0 23.3929 2.66817 26.0637 5.96227 26.0637Z" fill="white"/>
</g>
<path d="M19.531 13.936H14.322C13.9056 13.936 13.5714 14.2729 13.5714 14.6866V18.246C13.5714 18.6014 13.8207 18.9143 14.1708 18.9806C16.5499 19.4262 18.3534 21.5109 18.3534 24.0226C18.3534 26.5343 16.5525 28.6163 14.1708 29.0645C13.8207 29.1308 13.5714 29.4438 13.5714 29.7992V34.0375C13.5714 37.3289 16.2396 39.9998 19.5337 39.9998C22.8251 39.9998 25.496 37.3316 25.496 34.0375V19.8983C25.4933 16.6042 22.8251 13.936 19.531 13.936Z" fill="white"/>
<circle cx="28.9286" cy="11.0716" r="4.64286" fill="white"/>
<path d="M46.702 12.5135H54.6261C56.1421 12.5135 57.4395 12.7832 58.5184 13.3226C59.6066 13.862 60.4343 14.6293 61.0017 15.6245C61.569 16.6104 61.8527 17.7683 61.8527 19.0983C61.8527 20.4748 61.5458 21.6559 60.9319 22.6418C60.3181 23.6277 59.4345 24.3671 58.2813 24.86L62.5781 32.7144H57.9464L54.082 25.5436H50.8873V32.7144H46.702V12.5135ZM53.8449 22.1396C56.3002 22.1396 57.5279 21.1258 57.5279 19.0983C57.5279 18.0659 57.221 17.2847 56.6071 16.7545C55.9933 16.2151 55.0725 15.9454 53.8449 15.9454H50.8873V22.1396H53.8449ZM68.8002 32.7144H64.6708V12.5135H68.6886V20.2144H68.856C69.2095 19.3122 69.7721 18.6147 70.5441 18.1217C71.316 17.6195 72.26 17.3684 73.3761 17.3684C74.4271 17.3684 75.3478 17.5962 76.1384 18.052C76.9289 18.5077 77.5381 19.1634 77.966 20.019C78.4031 20.8747 78.6217 21.8885 78.6217 23.0603V32.7144H74.4922V23.7858C74.4922 22.8464 74.2504 22.1163 73.7667 21.5955C73.2924 21.0654 72.6228 20.8003 71.7578 20.8003C71.1812 20.8003 70.6696 20.9259 70.2232 21.177C69.7768 21.4188 69.428 21.7769 69.1769 22.2512C68.9258 22.7255 68.8002 23.2929 68.8002 23.9532V32.7144ZM83.6719 38.4063C82.8069 38.4063 82.1094 38.3784 81.5792 38.3226V35.1139C82.2861 35.1511 82.8441 35.1697 83.2534 35.1697C83.5789 35.1697 83.8486 35.1418 84.0625 35.086C84.2857 35.0302 84.495 34.9 84.6903 34.6954C84.8949 34.4908 85.0763 34.1838 85.2344 33.7746L85.4855 33.1329L80.0446 17.5637H84.3694L87.5502 28.7244H87.7176L90.9263 17.5637H95.3069L89.3917 34.3885C88.936 35.6812 88.2524 36.6718 87.341 37.36C86.4295 38.0575 85.2065 38.4063 83.6719 38.4063ZM105.379 20.6608H102.366V32.7144H98.2366V20.6608H96.0882V17.5637H98.2366V16.4197C98.2366 14.8572 98.6784 13.6574 99.5619 12.8204C100.446 11.9833 101.659 11.5648 103.203 11.5648C104.115 11.5648 104.933 11.6485 105.658 11.8159V14.9409C105.073 14.8851 104.654 14.8572 104.403 14.8572C103.724 14.8572 103.212 15.0014 102.868 15.2897C102.533 15.578 102.366 16.0291 102.366 16.6429V17.5637H105.379V20.6608ZM113.331 32.7144L120.335 12.5135H125.72L132.695 32.7144H128.203L126.682 28.0548H119.372L117.852 32.7144H113.331ZM125.622 24.7902L123.097 17.0615H122.958L120.432 24.7902H125.622ZM139.169 32.7144H134.983V12.5135H139.169V32.7144Z" fill="white"/>
<defs>
<clipPath id="clip0_583_164">
<rect width="25.9497" height="26.0637" fill="white"/>
</clipPath>
</defs>
</svg>
