<svg width="194" height="56" viewBox="0 0 194 56" fill="none" xmlns="http://www.w3.org/2000/svg">
<g clip-path="url(#clip0_364_127)">
<path d="M8.34718 36.4892H15.6398C16.2228 36.4892 16.6906 36.0176 16.6906 35.4384V30.4553C16.6906 29.9578 16.3416 29.5196 15.8515 29.4268C12.5208 28.803 9.99582 25.8844 9.99582 22.3681C9.99582 18.8517 12.5171 15.9369 15.8515 15.3094C16.3416 15.2165 16.6906 14.7784 16.6906 14.2808V8.34718C16.6944 3.73544 12.9552 0 8.34718 0C3.73544 0 0 3.73544 0 8.34718V28.142C0 32.7501 3.73544 36.4892 8.34718 36.4892Z" fill="white"/>
</g>
<path d="M27.3435 19.5107H20.0508C19.4679 19.5107 19 19.9823 19 20.5616V25.5446C19 26.0422 19.349 26.4803 19.8392 26.5732C23.1699 27.197 25.6948 30.1155 25.6948 33.6319C25.6948 37.1482 23.1736 40.0631 19.8392 40.6906C19.349 40.7834 19 41.2216 19 41.7191V47.6528C19 52.2608 22.7354 56 27.3472 56C31.9552 56 35.6944 52.2645 35.6944 47.6528V27.8579C35.6906 23.2462 31.9552 19.5107 27.3435 19.5107Z" fill="white"/>
<circle cx="40.5" cy="15.5" r="6.5" fill="white"/>
<path d="M65.1484 46V17.7188H76.7109C83.0781 17.7188 86.9844 21.3125 86.9844 27.0938C86.9844 30.9805 85.207 33.7734 82.1016 35.1797L88 46H80.6953L75.5 36.2734H71.7891V46H65.1484ZM71.7891 30.9609H75.3047C78.4297 30.9609 80.1094 29.75 80.1094 27.0938C80.1094 24.4375 78.4297 23.1094 75.3047 23.1094H71.7891V30.9609ZM97.2969 33.8516V46H90.6953V17.7188H97.0625V28.6562H97.2969C98.2734 26.0781 100.5 24.5156 103.664 24.5156C108.117 24.5156 111.047 27.6406 111.047 32.4844V46H104.445V33.7344C104.484 31.3516 103.195 29.9062 100.969 29.9062C98.7812 29.9062 97.2969 31.3906 97.2969 33.8516ZM118.234 53.9688C116.984 53.9688 115.812 53.9297 114.953 53.8516V48.8516C115.812 48.9297 116.75 48.9297 117.531 48.9297C118.625 48.9297 119.445 48.8125 120.031 47.4062L120.266 46.7422L112.727 24.7891H119.602L123.625 40.0234H123.859L127.883 24.7891H134.836L126.789 48.0703C125.617 51.5469 123.195 53.9688 118.234 53.9688ZM149.289 24.7891V29.6328H145.266V46H138.664V29.6328H135.773V24.7891H138.664V23.6172C138.664 18.8125 141.477 16.3906 145.891 16.3906C147.414 16.3906 148.547 16.5078 149.68 16.7422V21.625C148.781 21.5469 148.195 21.5078 147.883 21.5078C146.203 21.5078 145.266 22.1719 145.266 23.7734V24.7891H149.289ZM153.977 46.3906C152.023 46.3906 150.422 44.8281 150.461 42.8359C150.422 40.9219 152.023 39.3594 153.977 39.3594C155.852 39.3594 157.492 40.9219 157.531 42.8359C157.492 44.8281 155.852 46.3906 153.977 46.3906ZM160.969 40.1016C160.969 35.4141 164.602 33.7344 168.82 33.4609C170.344 33.3633 173 33.2656 173.898 33.2266V31.5078C173.898 30.0234 172.805 29.2031 171.008 29.2031C169.25 29.2031 168.156 29.9453 167.883 31.3516H161.75C162.023 27.6016 165.227 24.5156 171.164 24.5156C176.398 24.5156 180.5 27.0156 180.5 31.5859V46H174.289V43.0312H174.133C172.961 45.1797 170.93 46.3906 167.961 46.3906C163.898 46.3906 160.969 44.3203 160.969 40.1016ZM167.219 39.8281C167.219 41.2734 168.352 42.0156 169.953 42.0156C172.18 42.0156 173.977 40.5703 173.938 38.4609V37.0938C173.137 37.1328 170.891 37.2305 169.914 37.3281C168.273 37.5234 167.219 38.4219 167.219 39.8281ZM184.523 46V24.7891H191.125V46H184.523ZM187.844 22.25C185.969 22.25 184.445 20.8438 184.445 19.0859C184.445 17.3281 185.969 15.9219 187.844 15.9219C189.719 15.9219 191.281 17.3281 191.281 19.0859C191.281 20.8438 189.719 22.25 187.844 22.25Z" fill="white"/>
<defs>
<clipPath id="clip0_364_127">
<rect width="36.3295" height="36.4892" fill="white"/>
</clipPath>
</defs>
</svg>
